<svg width="1228" height="511" viewBox="0 0 1228 511" fill="none" xmlns="http://www.w3.org/2000/svg">
<g opacity="0.8" clip-path="url(#clip0_383_482)">
<path d="M1258.58 195.185L1292.12 289.505M1225.02 348.777L1241.79 395.937M1131.1 382.175L1147.86 429.335M1008.1 284.248L1041.64 378.568M1062.9 140.81L1028.24 117.72M1125.52 118.544L1137.83 78.7546M1041.65 254.612L1213.85 193.381M1038.86 246.752C1030.7 223.822 1031.95 198.605 1042.34 176.649C1052.72 154.693 1071.38 137.797 1094.21 129.677C1117.05 121.557 1142.19 122.879 1164.1 133.352C1186.01 143.825 1202.9 162.591 1211.06 185.521L1247.39 287.701C1255.29 309.929 1259.25 321.043 1254.81 330.393C1250.4 339.754 1239.33 343.689 1217.2 351.56L1138.92 379.392C1116.79 387.263 1105.72 391.199 1096.39 386.726C1087.05 382.274 1083.09 371.16 1075.19 348.932L1038.86 246.752Z" stroke="#01BA35" stroke-width="3" stroke-linecap="round" stroke-linejoin="round"/>
</g>
<g opacity="0.8" clip-path="url(#clip1_383_482)" filter="url(#filter0_f_383_482)">
<path d="M1258.58 195.185L1292.12 289.505M1225.02 348.777L1241.79 395.937M1131.1 382.175L1147.86 429.335M1008.1 284.248L1041.64 378.568M1062.9 140.81L1028.24 117.72M1125.52 118.544L1137.83 78.7546M1041.65 254.612L1213.85 193.381M1038.86 246.752C1030.7 223.822 1031.95 198.605 1042.34 176.649C1052.72 154.693 1071.38 137.797 1094.21 129.677C1117.05 121.557 1142.19 122.879 1164.1 133.352C1186.01 143.825 1202.9 162.591 1211.06 185.521L1247.39 287.701C1255.29 309.929 1259.25 321.043 1254.81 330.393C1250.4 339.754 1239.33 343.689 1217.2 351.56L1138.92 379.392C1116.79 387.263 1105.72 391.199 1096.39 386.726C1087.05 382.274 1083.09 371.16 1075.19 348.932L1038.86 246.752Z" stroke="#01BA35" stroke-width="3" stroke-linecap="round" stroke-linejoin="round"/>
</g>
<line x1="8" y1="283" x2="1008" y2="283" stroke="#069735" stroke-width="2"/>
<g filter="url(#filter1_f_383_482)">
<line x1="8" y1="283" x2="1008" y2="283" stroke="#069735" stroke-width="2"/>
</g>
<defs>
<filter id="filter0_f_383_482" x="876.2" y="-7.8" width="525.462" height="526.473" filterUnits="userSpaceOnUse" color-interpolation-filters="sRGB">
<feFlood flood-opacity="0" result="BackgroundImageFix"/>
<feBlend mode="normal" in="SourceGraphic" in2="BackgroundImageFix" result="shape"/>
<feGaussianBlur stdDeviation="3.9" result="effect1_foregroundBlur_383_482"/>
</filter>
<filter id="filter1_f_383_482" x="0.2" y="274.2" width="1015.6" height="17.6" filterUnits="userSpaceOnUse" color-interpolation-filters="sRGB">
<feFlood flood-opacity="0" result="BackgroundImageFix"/>
<feBlend mode="normal" in="SourceGraphic" in2="BackgroundImageFix" result="shape"/>
<feGaussianBlur stdDeviation="3.9" result="effect1_foregroundBlur_383_482"/>
</filter>
<clipPath id="clip0_383_482">
<rect width="398.755" height="400.42" fill="white" transform="translate(884 133.595) rotate(-19.5743)"/>
</clipPath>
<clipPath id="clip1_383_482">
<rect width="398.755" height="400.42" fill="white" transform="translate(884 133.595) rotate(-19.5743)"/>
</clipPath>
</defs>
</svg>
