<svg width="282" height="500" viewBox="0 0 282 500" fill="none" xmlns="http://www.w3.org/2000/svg">
<g opacity="0.5">
<path d="M0.750005 62.5H-124.25C-132.538 62.5 -140.487 65.7924 -146.347 71.6529C-152.208 77.5134 -155.5 85.462 -155.5 93.75V322.917C-155.5 331.205 -152.208 339.153 -146.347 345.014C-140.487 350.874 -132.538 354.167 -124.25 354.167H188.25C196.538 354.167 204.487 350.874 210.347 345.014C216.208 339.153 219.5 331.205 219.5 322.917V218.75M32 354.167V437.5" stroke="#CABEF8" stroke-width="2.5" stroke-linecap="round" stroke-linejoin="round"/>
<path d="M115.333 62.5L73.6667 104.167L115.333 145.833M177.833 62.5L219.5 104.167L177.833 145.833M-72.1666 437.5H136.167" stroke="#CABEF8" stroke-width="2.5" stroke-linecap="round" stroke-linejoin="round"/>
</g>
</svg>
